<?xml version="1.0" ?><svg id="Capa_1" style="enable-background:new 0 0 512 512;" version="1.1" viewBox="0 0 512 512" xml:space="preserve" xmlns="http://www.w3.org/2000/svg" xmlns:xlink="http://www.w3.org/1999/xlink"><path d="M446,193h-20h-60h-20h-40H166h-40H86H66c-22.09,0-40-17.91-40-40v309c0,22.09,17.91,40,40,40h380  c11.05,0,20-8.95,20-20V213C466,201.95,457.05,193,446,193z" style="fill:#91552C;"/><path d="M488.34,326.194l-5.308,59.765c-0.977,11.007-10.684,19.13-21.691,18.152l-39.843-3.538  l-49.804-4.423c-27.502-2.442-47.823-26.725-45.381-54.227c1.221-13.746,7.905-25.702,17.72-33.915s22.761-12.686,36.507-11.465  l49.804,4.423l39.843,3.538C481.194,305.481,489.318,315.188,488.34,326.194z" style="fill:#FEB756;"/><path d="M426,133v60h-60v-80h40C417.05,113,426,121.95,426,133z" style="fill:#874010;"/><path d="M366,113v80h-20h-40V53h40c11.05,0,20,8.95,20,20V113z" style="fill:#FEB756;"/><path d="M306,53v140H166V10h120c11.05,0,20,8.95,20,20V53z M266,73c0-11.05-8.95-20-20-20  c-11.05,0-20,8.95-20,20s8.95,20,20,20c-11.05,0-20,8.95-20,20s8.95,20,20,20c11.05,0,20-8.95,20-20s-8.95-20-20-20  C257.05,93,266,84.05,266,73z" style="fill:#4DBBEB;"/><path d="M246,53c11.05,0,20,8.95,20,20s-8.95,20-20,20c-11.05,0-20-8.95-20-20S234.95,53,246,53z" style="fill:#FD3A4E;"/><path d="M246,93c11.05,0,20,8.95,20,20s-8.95,20-20,20c-11.05,0-20-8.95-20-20S234.95,93,246,93z" style="fill:#FED42D;"/><rect height="183" style="fill:#57555C;" width="40" x="126" y="10"/><path d="M126,10v183H86v-80V30c0-11.05,8.95-20,20-20H126z" style="fill:#4DBBEB;"/><path d="M86,113v80H66c-22.09,0-40-17.91-40-40s17.91-40,40-40H86z" style="fill:#874010;"/><path d="M366,339c-5.52,0-10,4.48-10,10s4.48,10,10,10s10-4.48,10-10S371.52,339,366,339z"/><path d="M106,409c-5.52,0-10,4.48-10,10s4.48,10,10,10s10-4.48,10-10S111.52,409,106,409z"/><path d="M216,113c0,16.542,13.458,30,30,30s30-13.458,30-30c0-7.678-2.902-14.688-7.663-20C273.098,87.688,276,80.678,276,73  c0-16.542-13.458-30-30-30s-30,13.458-30,30c0,7.678,2.902,14.688,7.663,20C218.902,98.312,216,105.322,216,113z M246,123  c-5.514,0-10-4.486-10-10s4.486-10,10-10s10,4.486,10,10S251.514,123,246,123z M246,63c5.514,0,10,4.486,10,10s-4.486,10-10,10  s-10-4.486-10-10S240.486,63,246,63z"/><path d="M246,409H146c-5.523,0-10,4.478-10,10s4.477,10,10,10h100c5.522,0,10-4.478,10-10S251.522,409,246,409z"/><path d="M476,290.72V213c0-16.542-13.458-30-30-30h-10v-50c0-16.542-13.458-30-30-30h-30V73c0-16.542-13.458-30-30-30h-30V30  c0-16.542-13.458-30-30-30H106C89.458,0,76,13.458,76,30v73H66c-27.57,0-50,22.43-50,50v309c0,27.57,22.43,50,50,50h380  c16.542,0,30-13.458,30-30v-74.72c11.639-4.128,20-15.243,20-28.28v-60C496,305.964,487.639,294.848,476,290.72z M406,123  c5.514,0,10,4.486,10,10v50h-40v-60H406z M346,63c5.514,0,10,4.486,10,10v110h-40V63H346z M296,30v153H176V20h110  C291.514,20,296,24.486,296,30z M136,183V20h20v163H136z M96,30c0-5.514,4.486-10,10-10h10v163H96V30z M66,123h10v60H66  c-16.542,0-30-13.458-30-30S49.458,123,66,123z M446,492H66c-16.542,0-30-13.458-30-30V192.973C44.363,199.265,54.753,203,66,203h20  h220h120h20c5.514,0,10,4.486,10,10v76h-20v-53c0-5.522-4.478-10-10-10H66c-5.523,0-10,4.478-10,10v226c0,5.522,4.477,10,10,10h360  c5.522,0,10-4.478,10-10v-53h20v73C456,487.514,451.514,492,446,492z M376,289c-16.021,0-31.086,6.243-42.42,17.579  C322.243,317.914,316,332.979,316,349c0,33.084,26.916,60,60,60h40v43H76V246h340v43H376z M476,379c0,5.514-4.486,10-10,10h-90  c-22.056,0-40-17.944-40-40c0-10.678,4.163-20.721,11.722-28.279C355.279,313.163,365.322,309,376,309h90c5.514,0,10,4.486,10,10  V379z"/><g/><g/><g/><g/><g/><g/><g/><g/><g/><g/><g/><g/><g/><g/><g/></svg>